<svg width="14" height="18" viewBox="0 0 14 18" fill="none" xmlns="http://www.w3.org/2000/svg">
<path d="M11.5793 1.5H1.57934C1.16513 1.5 0.82934 1.16421 0.82934 0.75C0.82934 0.335786 1.16513 0 1.57934 0H11.5793C11.9936 0 12.3293 0.335786 12.3293 0.75C12.3293 1.16421 11.9936 1.5 11.5793 1.5Z" fill="#505050"/>
<path d="M12.4093 10.2564C12.6089 10.2564 12.8001 10.3371 12.9393 10.48C13.2318 10.7728 13.2318 11.2472 12.9393 11.54L7.10934 17.36C6.81652 17.6525 6.34216 17.6525 6.04934 17.36L0.21934 11.54C-0.0731134 11.2472 -0.0731134 10.7728 0.21934 10.48C0.358628 10.3371 0.549753 10.2564 0.74934 10.2564C0.948928 10.2564 1.14005 10.3371 1.27934 10.48L5.82934 15.02V3.8C5.82934 3.38579 6.16513 3.05 6.57934 3.05C6.99355 3.05 7.32934 3.38579 7.32934 3.8V15.02L11.8793 10.48C12.0186 10.3371 12.2098 10.2564 12.4093 10.2564Z" fill="#505050"/>
</svg>
