<svg width="20" height="20" viewBox="0 0 20 20" fill="none" xmlns="http://www.w3.org/2000/svg">
<path fill-rule="evenodd" clip-rule="evenodd" d="M19.1736 13.0336L19.9336 18.3136C19.9884 18.7201 19.8648 19.1305 19.5946 19.4391C19.3243 19.7477 18.9338 19.9244 18.5236 19.9236H18.3136L13.0336 19.1636C12.3179 19.0649 11.6541 18.7348 11.1436 18.2236L1.40356 8.47356C-0.491301 6.51167 -0.464202 3.39314 1.46447 1.46447C3.39314 -0.464202 6.51167 -0.491301 8.47356 1.40356L18.2336 11.1436C18.7448 11.6541 19.0749 12.3179 19.1736 13.0336ZM12.2536 17.1636C12.5301 17.4292 12.8773 17.6097 13.2536 17.6836L18.4636 18.3736L17.7336 13.2036C17.6597 12.8273 17.4792 12.4801 17.2136 12.2036L7.46356 2.46356C6.80662 1.78913 5.90506 1.40874 4.96356 1.40874C4.02206 1.40874 3.1205 1.78913 2.46356 2.46356C1.80464 3.11864 1.43414 4.00942 1.43414 4.93856C1.43414 5.8677 1.80464 6.75848 2.46356 7.41356L12.2536 17.1636Z" fill="#505050"/>
<path d="M5.43356 4.37356C5.13805 4.0982 4.67755 4.10633 4.39194 4.39194C4.10633 4.67755 4.0982 5.13805 4.37356 5.43356L8.58356 9.64356C8.87638 9.93601 9.35074 9.93601 9.64356 9.64356C9.93602 9.35074 9.93602 8.87638 9.64356 8.58356L5.43356 4.37356Z" fill="#505050"/>
</svg>
