<svg width="16" height="20" viewBox="0 0 16 20" fill="none" xmlns="http://www.w3.org/2000/svg">
<path d="M14.79 5C14.3537 5 14 5.35369 14 5.79V14.63C14 16.4912 12.4912 18 10.63 18H4.95C3.0888 18 1.58 16.4912 1.58 14.63V5.79C1.58 5.35369 1.22631 5 0.79 5C0.353695 5 1.30029e-08 5.35369 0 5.79V14.63C0.0274201 17.3719 2.25799 19.5801 5 19.58H10.68C13.4025 19.5529 15.6029 17.3525 15.63 14.63V5.79C15.6304 5.57152 15.5404 5.36262 15.3812 5.21294C15.2221 5.06326 15.008 4.98617 14.79 5Z" fill="#505050"/>
<path fill-rule="evenodd" clip-rule="evenodd" d="M14.79 3.58H0.79C0.353695 3.58 0 3.22631 0 2.79C0 2.35369 0.353695 2 0.79 2H3.44L4.62 0.72C5.07107 0.261411 5.68675 0.00217586 6.33 1.83491e-10H9.25C9.88387 -7.84652e-06 10.4918 0.25179 10.94 0.7L12.14 2H14.79C15.2263 2 15.58 2.35369 15.58 2.79C15.58 3.22631 15.2263 3.58 14.79 3.58ZM9.25 1.58H6.33C6.13008 1.58007 5.93744 1.65499 5.79 1.79L5.6 1.99H9.98L9.79 1.79C9.64364 1.65326 9.45029 1.57807 9.25 1.58Z" fill="#505050"/>
<path d="M4.04 6.79V9.79C4.04 10.2042 4.37579 10.54 4.79 10.54C5.20421 10.54 5.54 10.2042 5.54 9.79V6.79C5.54 6.37579 5.20421 6.04 4.79 6.04C4.37579 6.04 4.04 6.37579 4.04 6.79Z" fill="#505050"/>
<path d="M7.04 6.79V14.79C7.04 15.2042 7.37579 15.54 7.79 15.54C8.20421 15.54 8.54 15.2042 8.54 14.79V6.79C8.54 6.37579 8.20421 6.04 7.79 6.04C7.37579 6.04 7.04 6.37579 7.04 6.79Z" fill="#505050"/>
<path d="M10.04 6.79V9.79C10.04 10.2042 10.3758 10.54 10.79 10.54C11.2042 10.54 11.54 10.2042 11.54 9.79V6.79C11.54 6.37579 11.2042 6.04 10.79 6.04C10.3758 6.04 10.04 6.37579 10.04 6.79Z" fill="#505050"/>
</svg>
