<svg width="32" height="32" viewBox="0 0 32 32" fill="none" xmlns="http://www.w3.org/2000/svg">
<path d="M32 16C32 7.16344 24.8366 0 16 0C7.16344 0 0 7.16344 0 16C0 24.8366 7.16344 32 16 32C24.8366 32 32 24.8366 32 16Z" fill="#0077FF"/>
<path d="M17.0833 21.4083C11.3833 21.4083 8.13333 17.5083 8 11.0083H10.8667C10.9583 15.775 13.0583 17.7916 14.725 18.2083V11.0083H17.4167V15.1166C19.0583 14.9416 20.7917 13.0666 21.375 11H24.0583C23.8395 12.0698 23.4025 13.083 22.7745 13.9762C22.1464 14.8695 21.341 15.6237 20.4083 16.1916C21.4491 16.7097 22.3682 17.4424 23.1051 18.3416C23.842 19.2408 24.3799 20.286 24.6833 21.4083H21.725C21.0917 19.4333 19.5083 17.9 17.4167 17.6916V21.4083H17.0917H17.0833Z" fill="white"/>
</svg>
